<?xml version="1.0" encoding="iso-8859-1"?>
<!-- Generator: Adobe Illustrator 19.0.0, SVG Export Plug-In . SVG Version: 6.00 Build 0)  -->
<svg version="1.1" id="Capa_1" xmlns="http://www.w3.org/2000/svg" xmlns:xlink="http://www.w3.org/1999/xlink" x="0px" y="0px"
	 viewBox="0 0 457.273 457.273" style="enable-background:new 0 0 457.273 457.273;" xml:space="preserve">
<path id="XMLID_231_" d="M444.993,310.845l-10.783-75.758c-0.303-8.593-3.285-17.1-8.78-24.727
	c-9.9-13.742-26.75-23.402-44.469-25.638l-4.438-31.455c-2.495-17.688-18.949-32.077-36.68-32.077l0,0h-11.318v0.001l0-0.001
	c-17.729,0-34.184,14.39-36.681,32.077l-4.154,29.454l-4.156-29.455c-2.496-17.687-18.951-32.076-36.682-32.076h-11.318
	c-17.729,0-34.184,14.39-36.681,32.076l-4.368,30.964h-26.258l-1.021-120.578c-0.055-6.477-1.351-17.295-1.386-17.543l-5.463-38.377
	c-0.701-4.921-5.258-8.342-10.179-7.642s-8.342,5.258-7.642,10.179l1.176,8.262c-3.156-0.922-6.782-1.464-10.944-1.464h-1.633
	c-17.899-0.039-26.043-0.009-41.302,7.856c-16.361,8.429-29.389,11.947-45.883,16.4c-3.588,0.969-7.329,1.979-11.288,3.088
	c-7.8,2.184-14.024,7.72-17.527,15.59c-2.15,4.831-3.118,10.254-2.92,15.648c-0.024,0.27,0.057,2.31,0.232,3.013
	c0.477,4.034,1.612,7.986,3.401,11.593l5.802,11.696c0.664,1.349,1.489,2.636,2.451,3.825c1.709,2.111,4.28,3.338,6.996,3.338
	h30.909c-0.101,6.634-0.294,14.738-0.507,23.645c-1.088,45.447-1.737,85.126,1.07,106.094l-11.371,14.92
	c-3.013,3.953-2.25,9.601,1.703,12.613c3.954,3.015,9.602,2.252,12.613-1.703l2.181-2.86l2.288,9.375l-11.086,14.547
	c-3.013,3.953-2.25,9.601,1.703,12.613c3.953,3.015,9.602,2.252,12.613-1.703l2.261-2.967l2.551,10.445l-11.086,14.547
	c-3.013,3.953-2.25,9.601,1.703,12.613c3.956,3.015,9.603,2.25,12.613-1.703l2.261-2.966l2.403,9.844l-11.088,14.547
	c-3.013,3.954-2.251,9.601,1.702,12.614c3.954,3.014,9.601,2.251,12.614-1.702l2.262-2.969l13.033,53.381l-23.626,30.411
	c-2.108,2.714-2.487,6.392-0.977,9.478c1.511,3.087,4.647,5.044,8.084,5.044h116.345c3.282,0,6.304-1.787,7.886-4.663
	c1.582-2.875,1.473-6.385-0.285-9.156l-19.312-30.458l2.318-9.495l2.264,2.97c3.013,3.953,8.66,4.718,12.613,1.703
	c3.954-3.013,4.716-8.66,1.703-12.613l-11.089-14.55l1.8-7.371l2.262,2.968c3.011,3.953,8.657,4.717,12.613,1.703
	c3.953-3.013,4.716-8.659,1.703-12.613l-11.086-14.549l1.788-7.323c11.521,2.317,24.31,3.578,37.865,3.578
	c14.438,0,28.001-1.429,40.095-4.043l1.994,8.166l-11.425,14.987c-3.013,3.953-2.251,9.601,1.702,12.614
	c3.954,3.012,9.601,2.251,12.614-1.702l2.599-3.41l1.8,7.372l-11.981,15.722c-3.013,3.953-2.25,9.601,1.703,12.613
	c3.954,3.014,9.602,2.252,12.613-1.703l3.156-4.142l2.209,9.049l-23.171,29.825c-2.108,2.714-2.487,6.392-0.977,9.478
	c1.511,3.087,4.647,5.044,8.084,5.044h116.344c3.298,0,6.331-1.804,7.907-4.701c1.575-2.896,1.439-6.424-0.354-9.191l-19.811-30.587
	l2.117-8.673l2.972,3.898c3.012,3.953,8.659,4.717,12.613,1.703c3.954-3.013,4.716-8.66,1.703-12.613l-11.797-15.479l1.8-7.372
	l2.413,3.166c3.013,3.953,8.66,4.715,12.613,1.703c3.953-3.013,4.716-8.66,1.703-12.613l-11.238-14.747l15.996-65.513l3.861,27.128
	c0.701,4.922,5.264,8.349,10.179,7.642C442.272,320.323,445.693,315.766,444.993,310.845z M216.676,155.782
	c1.27-8.993,9.904-16.592,18.856-16.592h11.318c8.953,0,17.589,7.598,18.857,16.592l5.462,38.706
	c0.627,4.44,4.428,7.742,8.912,7.742h15.213c4.485,0,8.285-3.302,8.912-7.743l5.459-38.705c1.271-8.993,9.905-16.592,18.857-16.592
	l0-0.001v0.001h11.318c8.953,0,17.589,7.598,18.856,16.592l4.807,34.056c-15.037,15.632-44.252,25.593-75.707,25.593
	c-31.59,0-60.92-10.047-75.898-25.794L216.676,155.782z M332.549,227.168l-44.751,52.516l-44.751-52.516
	c13.69,4.058,28.921,6.263,44.751,6.263S318.858,231.226,332.549,227.168z M138.983,439.273h-32.67l12.31-15.844h20.36V439.273z
	 M156.983,439.273v-15.844h20.877l10.046,15.844H156.983z M339.388,439.273h-32.67l12.31-15.844h20.36V439.273z M357.388,439.273
	v-15.844h20.471l10.262,15.844H357.388z M415.562,242.104l-39.878,163.325h-18.297v-55.114c0-4.971-4.029-9-9-9s-9,4.029-9,9v55.114
	h-18.297l-16.353-66.979c18.751-6.762,31.754-16.944,35.529-29.121c1.472-4.748-1.185-9.79-5.932-11.262
	c-4.748-1.475-9.791,1.185-11.262,5.932c-3.803,12.269-35.152,25.403-75.761,25.403s-71.958-13.135-75.76-25.402
	c-1.471-4.749-6.516-7.397-11.261-5.933c-4.748,1.472-7.404,6.514-5.933,11.261c3.918,12.64,17.776,23.13,37.687,29.876
	l-16.17,66.225h-18.894v-55.114c0-4.971-4.029-9-9-9s-9,4.029-9,9v55.114h-17.698l-16.825-68.913
	c-0.022-0.1-0.047-0.199-0.073-0.298l-7.817-32.021c-0.025-0.111-0.052-0.222-0.081-0.331l-7.977-32.672
	c-0.016-0.065-0.031-0.131-0.048-0.196c0,0-7.578-31.447-7.624-31.657c-3.419-19.512-2.18-71.301-1.347-106.15
	c0.326-13.614,0.607-25.372,0.584-33.103c-0.015-4.96-4.04-8.973-9-8.973H36.366l-2.801-5.647h11.002c4.971,0,9-4.029,9-9
	s-4.029-9-9-9H31.515c0.021-0.049,0.042-0.098,0.063-0.146c1.32-2.967,3.317-4.843,5.936-5.575
	c3.903-1.094,7.591-2.089,11.128-3.044c16.833-4.545,31.371-8.471,49.437-17.778c11.375-5.864,15.947-5.879,33.049-5.856h1.64
	c8.861,0,16.214,2.162,16.438,28.737l1.098,129.502c0.042,4.94,4.06,8.924,9,8.924h38.846l82.8,97.166
	c1.71,2.007,4.214,3.163,6.851,3.163s5.141-1.156,6.851-3.163l82.635-96.973c13.215,1.249,26.336,8.456,33.542,18.458
	C414.204,225.572,417.769,233.063,415.562,242.104z M117.508,63.729c0,4.971-4.029,9-9,9h-1.924c-4.971,0-9-4.029-9-9s4.029-9,9-9
	h1.924C113.478,54.729,117.508,58.758,117.508,63.729z"/>
<g>
</g>
<g>
</g>
<g>
</g>
<g>
</g>
<g>
</g>
<g>
</g>
<g>
</g>
<g>
</g>
<g>
</g>
<g>
</g>
<g>
</g>
<g>
</g>
<g>
</g>
<g>
</g>
<g>
</g>
</svg>
